HIERARCHY
ROOT Hips
{
    OFFSET   0.000000   0.000000   0.000000
    CHANNELS 6 Xposition Yposition Zposition Zrotation Xrotation Yrotation
    JOINT Chest
    {
        OFFSET   0.000000   8.007240   0.000000
        CHANNELS 3 Zrotation Xrotation Yrotation
        JOINT Chest2
        {
            OFFSET   0.000000  22.077100   0.000000
            CHANNELS 3 Zrotation Xrotation Yrotation
            JOINT Neck
            {
                OFFSET   0.000000  23.254800   0.000000
                CHANNELS 3 Zrotation Xrotation Yrotation
                JOINT Head
                {
                    OFFSET   0.000000  14.370000   1.956600
                    CHANNELS 3 Zrotation Xrotation Yrotation
                    End Site
                    {
                        OFFSET   0.000000  19.566000   0.000000
                    }
                }
            }
            JOINT LeftCollar
            {
                OFFSET   3.911900  19.017000  -0.467064
                CHANNELS 3 Zrotation Xrotation Yrotation
                JOINT LeftShoulder
                {
                    OFFSET  10.383700   0.000000   0.000000
                    CHANNELS 3 Zrotation Xrotation Yrotation
                    JOINT LeftElbow
                    {
                        OFFSET  26.662100   0.001476   0.000517
                        CHANNELS 3 Zrotation Xrotation Yrotation
                        JOINT LeftWrist
                        {
                            OFFSET  28.869000  -0.000025  -0.000106
                            CHANNELS 3 Zrotation Xrotation Yrotation
                            JOINT LeftFinger0
                            {
                                OFFSET   2.044660  -2.323460   3.252850
                                CHANNELS 3 Zrotation Xrotation Yrotation
                                JOINT LeftFinger01
                                {
                                    OFFSET   3.088130   0.000000   0.000000
                                    CHANNELS 3 Zrotation Xrotation Yrotation
                                    JOINT LeftFinger02
                                    {
                                        OFFSET   2.639460   0.000000   0.000000
                                        CHANNELS 3 Zrotation Xrotation Yrotation
                                        End Site
                                        {
                                            OFFSET   2.582190   0.000000   0.000000
                                        }
                                    }
                                }
                            }
                            JOINT LeftFinger1
                            {
                                OFFSET   8.364480   0.000000   3.252850
                                CHANNELS 3 Zrotation Xrotation Yrotation
                                JOINT LeftFinger11
                                {
                                    OFFSET   4.646930   0.000000   0.000000
                                    CHANNELS 3 Zrotation Xrotation Yrotation
                                    JOINT LeftFinger12
                                    {
                                        OFFSET   2.323460   0.000000   0.000000
                                        CHANNELS 3 Zrotation Xrotation Yrotation
                                        End Site
                                        {
                                            OFFSET   2.273050   0.000000   0.000000
                                        }
                                    }
                                }
                            }
                            JOINT LeftFinger2
                            {
                                OFFSET   8.364490   0.000015   1.078090
                                CHANNELS 3 Zrotation Xrotation Yrotation
                                JOINT LeftFinger21
                                {
                                    OFFSET   5.111620   0.000000   0.000000
                                    CHANNELS 3 Zrotation Xrotation Yrotation
                                    JOINT LeftFinger22
                                    {
                                        OFFSET   2.788160   0.000016   0.000000
                                        CHANNELS 3 Zrotation Xrotation Yrotation
                                        End Site
                                        {
                                            OFFSET   2.727660   0.000000   0.000000
                                        }
                                    }
                                }
                            }
                            JOINT LeftFinger3
                            {
                                OFFSET   7.899780   0.000017  -1.078090
                                CHANNELS 3 Zrotation Xrotation Yrotation
                                JOINT LeftFinger31
                                {
                                    OFFSET   4.646930   0.000000   0.000000
                                    CHANNELS 3 Zrotation Xrotation Yrotation
                                    JOINT LeftFinger32
                                    {
                                        OFFSET   2.323470   0.000000   0.000000
                                        CHANNELS 3 Zrotation Xrotation Yrotation
                                        End Site
                                        {
                                            OFFSET   2.273050   0.000000   0.000000
                                        }
                                    }
                                }
                            }
                            JOINT LeftFinger4
                            {
                                OFFSET   7.435090   0.000000  -3.252850
                                CHANNELS 3 Zrotation Xrotation Yrotation
                                JOINT LeftFinger41
                                {
                                    OFFSET   3.717550   0.000000   0.000000
                                    CHANNELS 3 Zrotation Xrotation Yrotation
                                    JOINT LeftFinger42
                                    {
                                        OFFSET   1.858770   0.000000   0.000000
                                        CHANNELS 3 Zrotation Xrotation Yrotation
                                        End Site
                                        {
                                            OFFSET   1.818440   0.000000   0.000000
                                        }
                                    }
                                }
                            }
                        }
                    }
                }
            }
            JOINT RightCollar
            {
                OFFSET  -3.911900  19.017000  -0.467063
                CHANNELS 3 Zrotation Xrotation Yrotation
                JOINT RightShoulder
                {
                    OFFSET -10.383700   0.000019   0.000000
                    CHANNELS 3 Zrotation Xrotation Yrotation
                    JOINT RightElbow
                    {
                        OFFSET -26.662100   0.001175   0.000102
                        CHANNELS 3 Zrotation Xrotation Yrotation
                        JOINT RightWrist
                        {
                            OFFSET -28.869000   0.000016  -0.000079
                            CHANNELS 3 Zrotation Xrotation Yrotation
                            JOINT RightFinger0
                            {
                                OFFSET  -2.044660  -2.323490   3.252850
                                CHANNELS 3 Zrotation Xrotation Yrotation
                                JOINT RightFinger01
                                {
                                    OFFSET  -3.088140   0.000000   0.000000
                                    CHANNELS 3 Zrotation Xrotation Yrotation
                                    JOINT RightFinger02
                                    {
                                        OFFSET  -2.639460   0.000000   0.000000
                                        CHANNELS 3 Zrotation Xrotation Yrotation
                                        End Site
                                        {
                                            OFFSET  -2.582190   0.000000   0.000000
                                        }
                                    }
                                }
                            }
                            JOINT RightFinger1
                            {
                                OFFSET  -8.364480   0.000000   3.252850
                                CHANNELS 3 Zrotation Xrotation Yrotation
                                JOINT RightFinger11
                                {
                                    OFFSET  -4.646930   0.000000   0.000000
                                    CHANNELS 3 Zrotation Xrotation Yrotation
                                    JOINT RightFinger12
                                    {
                                        OFFSET  -2.323470   0.000000   0.000000
                                        CHANNELS 3 Zrotation Xrotation Yrotation
                                        End Site
                                        {
                                            OFFSET  -2.273050   0.000000   0.000000
                                        }
                                    }
                                }
                            }
                            JOINT RightFinger2
                            {
                                OFFSET  -8.364480   0.000000   1.078090
                                CHANNELS 3 Zrotation Xrotation Yrotation
                                JOINT RightFinger21
                                {
                                    OFFSET  -5.111620   0.000000   0.000000
                                    CHANNELS 3 Zrotation Xrotation Yrotation
                                    JOINT RightFinger22
                                    {
                                        OFFSET  -2.788160   0.000000   0.000000
                                        CHANNELS 3 Zrotation Xrotation Yrotation
                                        End Site
                                        {
                                            OFFSET  -2.727660   0.000000   0.000000
                                        }
                                    }
                                }
                            }
                            JOINT RightFinger3
                            {
                                OFFSET  -7.899780   0.000000  -1.078090
                                CHANNELS 3 Zrotation Xrotation Yrotation
                                JOINT RightFinger31
                                {
                                    OFFSET  -4.646930   0.000000   0.000000
                                    CHANNELS 3 Zrotation Xrotation Yrotation
                                    JOINT RightFinger32
                                    {
                                        OFFSET  -2.323470   0.000000   0.000000
                                        CHANNELS 3 Zrotation Xrotation Yrotation
                                        End Site
                                        {
                                            OFFSET  -2.273050   0.000000   0.000000
                                        }
                                    }
                                }
                            }
                            JOINT RightFinger4
                            {
                                OFFSET  -7.435090   0.000000  -3.252850
                                CHANNELS 3 Zrotation Xrotation Yrotation
                                JOINT RightFinger41
                                {
                                    OFFSET  -3.717550   0.000000   0.000000
                                    CHANNELS 3 Zrotation Xrotation Yrotation
                                    JOINT RightFinger42
                                    {
                                        OFFSET  -1.858770   0.000000   0.000000
                                        CHANNELS 3 Zrotation Xrotation Yrotation
                                        End Site
                                        {
                                            OFFSET  -1.818440   0.000000   0.000000
                                        }
                                    }
                                }
                            }
                        }
                    }
                }
            }
        }
    }
    JOINT LeftHip
    {
        OFFSET   9.783040   0.000000   0.000000
        CHANNELS 3 Zrotation Xrotation Yrotation
        JOINT LeftKnee
        {
            OFFSET   0.000032 -41.789100  -0.002222
            CHANNELS 3 Zrotation Xrotation Yrotation
            JOINT LeftAnkle
            {
                OFFSET   0.000087 -41.133200  -0.000135
                CHANNELS 3 Zrotation Xrotation Yrotation
                JOINT LeftToe
                {
                    OFFSET   0.000000  -6.358960  14.674500
                    CHANNELS 3 Zrotation Xrotation Yrotation
                    End Site
                    {
                        OFFSET   0.000000   0.000000   3.913200
                    }
                }
            }
        }
    }
    JOINT RightHip
    {
        OFFSET  -9.783040   0.000000   0.000000
        CHANNELS 3 Zrotation Xrotation Yrotation
        JOINT RightKnee
        {
            OFFSET   0.000047 -41.789100  -0.000896
            CHANNELS 3 Zrotation Xrotation Yrotation
            JOINT RightAnkle
            {
                OFFSET  -0.000117 -41.133300  -0.000248
                CHANNELS 3 Zrotation Xrotation Yrotation
                JOINT RightToe
                {
                    OFFSET   0.000000  -6.358970  14.674500
                    CHANNELS 3 Zrotation Xrotation Yrotation
                    End Site
                    {
                        OFFSET   0.000000   0.000000   3.913200
                    }
                }
            }
        }
    }
}
MOTION
Frames: 4
Frame Time:   0.016667
 -0.171557  89.491000  -0.322689  -2.252270  -2.101490  -4.476830   1.310460   3.171380  -0.064366   2.630550   6.340460  -0.201924   1.318010  -0.558712   0.018176   2.165840  -1.130900   2.689490  -4.386100   2.594060  -1.537150 -66.599700  16.224800  -7.166330  -4.130650  -7.725150 -10.579300   2.314270  -8.620780   9.157610  36.855300  28.651100 -71.522500  -7.044710   0.000000  -0.000000   1.477660  -0.000500   0.000000 -23.578500   4.329240  -9.808620 -19.595700   0.000083  -0.000061 -13.717000   0.000243   0.000000 -25.575800   2.203830  -4.593520 -25.664200   0.000190   0.000000 -17.092400  -0.000662   0.000082 -26.001100   0.498702  -1.021990 -26.005600   0.000421   0.000621 -17.319700  -0.001111   0.000478 -27.381800   0.295847  -0.570262 -41.074900   0.000219   0.000788 -27.355900   0.004318   0.000528   5.502780   0.841041   8.031520  66.945800  13.296700   5.415420   1.786850  -3.161400   5.834290 -13.714900 -15.875200   3.339610 -47.883800  43.065700  86.908600  12.813900   0.000059  -0.001683   1.415560   0.001699  -0.000823  25.879200   4.955820  10.097100  21.532300   0.000280  -0.000218  15.072600   0.002342  -0.002218  24.554700   2.657620   5.795150  24.689200  -0.005481  -0.004290  16.443000  -0.002402  -0.004327  24.990600   2.064340   4.419280  25.070300  -0.004976   0.002515  16.696800  -0.003418   0.002598  29.012800   1.279930   2.306420  43.557800  -0.013617   0.003830  29.009500   0.004237   0.003136   2.774650   5.204290   0.712567   0.856689   0.500986   0.875164  -2.531390  -3.427540  12.267100  -0.000000   0.000000  -0.000000   0.953183  -0.038598  -5.120770   1.553820   5.030940   3.737710  -4.799040  -2.470760   1.067450   0.000000   0.000000   0.000000
 -0.179133  89.491000  -0.314260  -2.252610  -2.101570  -4.485880   1.310550   3.178760  -0.062827   2.630690   6.355250  -0.199075   1.332500  -0.566269   0.018171   2.189670  -1.146150   2.704380  -4.386690   2.594380  -1.523940 -66.599800  16.247800  -7.186840  -4.136510  -7.755450 -10.580100   2.325430  -8.620260   9.179520  36.834900  28.608100 -71.487700  -7.104100   0.000000   0.000033   1.447940  -0.000516  -0.000000 -23.611200   4.328910  -9.797300 -19.621900   0.000083  -0.000030 -13.735400   0.000249  -0.000031 -25.617000   2.195110  -4.567220 -25.704500   0.000193  -0.000000 -17.119300  -0.000658   0.000089 -26.026800   0.472620  -0.967745 -26.030800   0.000426   0.000628 -17.336500  -0.001103   0.000482 -27.429100   0.298204  -0.573916 -41.145900   0.000223   0.000801 -27.403200   0.004314   0.000538   5.501700   0.848009   8.043810  66.936300  13.336000   5.439240   1.787470  -3.166470   5.820970 -13.711000 -15.886200   3.327910 -47.854700  43.065600  86.908800  12.808800   0.000030  -0.001683   1.408700   0.001719  -0.000833  25.894300   4.946300  10.070800  21.543100   0.000274  -0.000214  15.080100   0.002345  -0.002218  24.558400   2.638530   5.751890  24.690500  -0.005479  -0.004288  16.443800  -0.002405  -0.004327  25.003200   2.048630   4.383200  25.081700  -0.004971   0.002513  16.704400  -0.003414   0.002594  29.043000   1.285780   2.314350  43.603400  -0.013617   0.003831  29.039800   0.004237   0.003127   2.785570   5.206290   0.712339   0.854060   0.511916   0.889620  -2.531290  -3.440900  12.260200  -0.000000   0.000000  -0.000000   0.952630  -0.046654  -5.130270   1.558970   5.044080   3.752610  -4.805420  -2.471200   1.072090   0.000000   0.000000  -0.000000
 -0.191649  89.491000  -0.300194  -2.252960  -2.101730  -4.494930   1.310650   3.190800  -0.061288   2.630850   6.379360  -0.196229   1.352380  -0.579792   0.018154   2.222400  -1.173510   2.719280  -4.387710   2.594710  -1.501570 -66.603200  16.286900  -7.219450  -4.146730  -7.808700 -10.581500   2.342360  -8.619420   9.214490  36.802000  28.544000 -71.438400  -7.191170   0.000000   0.000065   1.404380  -0.000551   0.000000 -23.666500   4.328670  -9.778880 -19.666400   0.000082   0.000000 -13.766500   0.000261  -0.000063 -25.684200   2.181890  -4.526400 -25.770400   0.000200  -0.000000 -17.163100  -0.000642   0.000096 -26.072900   0.430944  -0.880881 -26.076200   0.000438   0.000645 -17.366700  -0.001080   0.000494 -27.503800   0.304584  -0.584718 -41.258000   0.000234   0.000838 -27.477800   0.004302   0.000564   5.500040   0.858188   8.064430  66.919600  13.399100   5.476130   1.790600  -3.179370   5.797470 -13.700100 -15.897400   3.311620 -47.825600  43.065600  86.908900  12.803700   0.000000  -0.001686   1.401830   0.001749  -0.000848  25.909700   4.935650  10.043500  21.553900   0.000263  -0.000202  15.087700   0.002348  -0.002220  24.561000   2.618500   5.708630  24.691700  -0.005475  -0.004283  16.444600  -0.002413  -0.004325  25.015900   2.032910   4.347130  25.093100  -0.004962   0.002505  16.712100  -0.003399   0.002585  29.072900   1.296200   2.329890  43.649000  -0.013618   0.003831  29.070200   0.004236   0.003102   2.803140   5.208300   0.712111   0.849685   0.538783   0.910041  -2.531940  -3.467080  12.246900  -0.000000   0.000000   0.000000   0.953131  -0.054709  -5.144530   1.568820   5.057220   3.767500  -4.816790  -2.474290   1.077980   0.000000   0.000000   0.000000
 -0.201411  89.491000  -0.288895  -2.254680  -2.101910  -4.492460   1.310680   3.200020  -0.063545   2.631090   6.397730  -0.200921   1.357830  -0.592032   0.018114   2.231330  -1.198480   2.709640  -4.393890   2.593030  -1.481730 -66.614000  16.317500  -7.244680  -4.153040  -7.856640 -10.575500   2.354430  -8.619620   9.244870  36.771800  28.503000 -71.414500  -7.242520   0.000000   0.000064   1.378730  -0.000600  -0.000030 -23.717200   4.332070  -9.761800 -19.708400   0.000080   0.000000 -13.795900   0.000271  -0.000031 -25.746900   2.172610  -4.494630 -25.832200   0.000209   0.000025 -17.204300  -0.000613   0.000089 -26.129000   0.394660  -0.804655 -26.131700   0.000458   0.000672 -17.403700  -0.001044   0.000513 -27.564600   0.316154  -0.605661 -41.349400   0.000253   0.000896 -27.538700   0.004286   0.000604   5.498730   0.864070   8.083440  66.902000  13.445900   5.500140   1.797950  -3.203330   5.774260 -13.675700 -15.878200   3.306800 -47.857000  43.065600  86.908600  12.806700   0.000000  -0.001696   1.403300   0.001766  -0.000855  25.899500   4.934500  10.042400  21.545200   0.000252  -0.000186  15.081600   0.002348  -0.002224  24.524300   2.617410   5.710670  24.655500  -0.005466  -0.004278  16.420500  -0.002428  -0.004320  24.993700   2.033500   4.363310  25.070900  -0.004952   0.002488  16.697300  -0.003372   0.002575  29.068100   1.308340   2.352430  43.642600  -0.013626   0.003829  29.066000   0.004230   0.003062   2.816430   5.196660   0.712115   0.845898   0.591599   0.919450  -2.534300  -3.504970  12.232500  -0.000000   0.000000   0.000000   0.958273  -0.037814  -5.152580   1.579470   5.049470   3.767290  -4.827860  -2.482150   1.079460   0.000000   0.000000   0.000000
